<!-- Generator: Adobe Illustrator 19.0.0, SVG Export Plug-In  -->
<svg version="1.1"
	 xmlns="http://www.w3.org/2000/svg" xmlns:xlink="http://www.w3.org/1999/xlink" xmlns:a="http://ns.adobe.com/AdobeSVGViewerExtensions/3.0/"
	 x="0px" y="0px" width="268.538px" height="66.873px" viewBox="0 0 268.538 66.873"
	 style="enable-background:new 0 0 268.538 66.873;" xml:space="preserve">
<style type="text/css">
	.st0{fill:#00354E;}
	.st1{fill:#0097C8;}
	.st2{fill:#FFFFFF;}
</style>
<defs>
</defs>
<g id="XMLID_77_">
	<g id="XMLID_191_">
		<g id="XMLID_193_">
			<path id="XMLID_223_" class="st0" d="M30.77,48.023h-5.861v-20.59L15.191,43.82L5.86,27.279v20.744H0V17.176h6.747l8.561,15.308
				l8.945-15.308h6.517V48.023z"/>
			<path id="XMLID_220_" class="st0" d="M67.669,48.023h-6.555l-2.854-6.169H43.3l-2.892,6.169h-6.555l14.575-30.847h4.665
				L67.669,48.023z M55.908,36.88L50.78,25.775L45.575,36.88H55.908z"/>
			<path id="XMLID_202_" class="st0" d="M96.395,48.023h-5.86l-13.92-21.631v21.631h-5.86V17.176h6.709l13.071,20.127V17.176h5.86
				V48.023z"/>
			<path id="XMLID_199_" class="st0" d="M133.719,32.6c0,2.211-0.43,4.293-1.29,6.247c-0.86,1.954-2.035,3.65-3.524,5.089
				c-1.489,1.44-3.222,2.578-5.199,3.413s-4.082,1.253-6.315,1.253c-2.234,0-4.346-0.418-6.336-1.253
				c-1.989-0.835-3.729-1.973-5.219-3.413c-1.489-1.439-2.663-3.129-3.523-5.07c-0.86-1.94-1.29-4.029-1.29-6.266
				s0.43-4.331,1.29-6.285s2.034-3.65,3.523-5.09c1.49-1.439,3.229-2.57,5.219-3.393c1.99-0.822,4.102-1.234,6.336-1.234
				c2.233,0,4.338,0.412,6.315,1.234c1.978,0.823,3.71,1.96,5.199,3.412c1.489,1.453,2.664,3.149,3.524,5.09
				C133.289,28.275,133.719,30.363,133.719,32.6z M127.742,32.6c0-1.413-0.271-2.744-0.812-3.991
				c-0.541-1.247-1.281-2.339-2.221-3.277c-0.94-0.938-2.042-1.684-3.303-2.236c-1.262-0.553-2.602-0.829-4.018-0.829
				c-1.442,0-2.795,0.276-4.057,0.829s-2.362,1.298-3.303,2.236c-0.939,0.938-1.68,2.031-2.221,3.277
				c-0.541,1.247-0.812,2.578-0.812,3.991c0,1.388,0.271,2.712,0.812,3.972c0.541,1.26,1.281,2.358,2.221,3.296
				c0.94,0.939,2.041,1.684,3.303,2.237s2.614,0.829,4.057,0.829c1.416,0,2.756-0.276,4.018-0.829
				c1.261-0.553,2.362-1.298,3.303-2.237c0.939-0.938,1.68-2.037,2.221-3.296C127.472,35.312,127.742,33.988,127.742,32.6z"/>
			<path id="XMLID_196_" class="st0" d="M166.995,48.023h-6.555l-2.854-6.169h-14.961l-2.892,6.169h-6.555l14.575-30.847h4.665
				L166.995,48.023z M155.234,36.88l-5.128-11.105l-5.205,11.105H155.234z"/>
			<path id="XMLID_194_" class="st0" d="M194.179,48.023h-5.977V34.373h-12.146v13.649h-5.977V17.215h5.977v12.223h12.146V17.215
				h5.977V48.023z"/>
		</g>
	</g>
	<g id="XMLID_102_">
		<g id="XMLID_104_">
			<path id="XMLID_146_" class="st0" d="M7.355,62.211c0,0.526-0.144,0.985-0.43,1.377c-0.287,0.393-0.695,0.694-1.225,0.903
				c-0.528,0.209-1.145,0.314-1.849,0.314c-1.489,0-2.672-0.417-3.547-1.249l0.64-0.638c0.681,0.714,1.638,1.072,2.873,1.072
				c0.852,0,1.503-0.149,1.955-0.447c0.452-0.298,0.679-0.743,0.679-1.333c0-0.449-0.136-0.791-0.407-1.027
				c-0.271-0.236-0.694-0.381-1.267-0.434l-1.452-0.133c-1.76-0.142-2.64-0.903-2.64-2.285c0-0.496,0.129-0.932,0.386-1.307
				c0.257-0.375,0.622-0.664,1.096-0.868c0.473-0.204,1.028-0.306,1.667-0.306c0.615,0,1.186,0.081,1.712,0.244
				s0.979,0.388,1.356,0.677l-0.619,0.62c-0.674-0.496-1.488-0.744-2.444-0.744c-0.721,0-1.272,0.148-1.656,0.443
				C1.8,57.387,1.607,57.8,1.607,58.332c0,0.46,0.144,0.807,0.43,1.041s0.736,0.376,1.351,0.43l1.408,0.124
				c0.814,0.071,1.445,0.271,1.891,0.602C7.133,60.859,7.355,61.42,7.355,62.211z"/>
			<path id="XMLID_143_" class="st0" d="M19.711,60.528h-6.075c0,1.11,0.243,1.962,0.73,2.555s1.191,0.89,2.112,0.89
				c0.508,0,0.941-0.08,1.302-0.239c0.36-0.16,0.732-0.431,1.116-0.815l0.69,0.549c-0.467,0.466-0.938,0.806-1.414,1.019
				c-0.476,0.212-1.06,0.319-1.751,0.319c-0.805,0-1.483-0.17-2.036-0.509c-0.553-0.339-0.972-0.843-1.259-1.51
				c-0.287-0.667-0.43-1.488-0.43-2.462c0-0.708,0.079-1.339,0.239-1.891c0.159-0.552,0.389-1.017,0.688-1.395
				c0.298-0.378,0.669-0.67,1.112-0.877s0.935-0.31,1.473-0.31c0.55,0,1.037,0.095,1.463,0.283c0.426,0.189,0.792,0.468,1.1,0.837
				c0.308,0.369,0.541,0.816,0.7,1.341c0.16,0.526,0.239,1.125,0.239,1.798V60.528z M18.781,59.784
				c-0.018-0.431-0.044-0.742-0.08-0.934c-0.035-0.192-0.108-0.43-0.221-0.713c-0.184-0.449-0.484-0.806-0.903-1.072
				c-0.42-0.266-0.874-0.398-1.364-0.398c-0.502,0-0.956,0.131-1.364,0.394c-0.407,0.263-0.708,0.622-0.903,1.076
				c-0.112,0.283-0.188,0.531-0.226,0.744c-0.038,0.213-0.066,0.514-0.084,0.903H18.781z"/>
			<path id="XMLID_141_" class="st0" d="M31.368,56.684l-0.664,0.673c-0.271-0.272-0.522-0.455-0.753-0.549
				c-0.23-0.094-0.531-0.142-0.903-0.142c-0.354,0-0.681,0.069-0.979,0.208s-0.549,0.332-0.753,0.58
				c-0.203,0.248-0.355,0.528-0.456,0.841s-0.15,0.652-0.15,1.019V64.7h-0.921v-8.741h0.921v1.16
				c0.254-0.401,0.614-0.713,1.08-0.935c0.467-0.221,0.96-0.332,1.479-0.332c0.431,0,0.813,0.062,1.146,0.186
				C30.75,56.162,31.067,56.377,31.368,56.684z"/>
			<path id="XMLID_139_" class="st0" d="M42.077,55.958L38.889,64.7h-0.912l-3.188-8.741h1.01l2.63,7.652l2.631-7.652H42.077z"/>
			<path id="XMLID_136_" class="st0" d="M48.208,52.929h-1.143v-1.142h1.143V52.929z M48.102,64.7h-0.921v-8.741h0.921V64.7z"/>
			<path id="XMLID_134_" class="st0" d="M60.927,63.469c-0.467,0.514-0.913,0.865-1.339,1.054s-0.943,0.284-1.552,0.284
				c-0.586,0-1.113-0.102-1.583-0.306s-0.877-0.503-1.22-0.899s-0.603-0.874-0.78-1.435c-0.178-0.561-0.266-1.175-0.266-1.842
				c0-0.927,0.155-1.724,0.465-2.391c0.311-0.667,0.756-1.181,1.335-1.542c0.579-0.36,1.263-0.54,2.049-0.54
				c0.627,0,1.151,0.096,1.574,0.288s0.861,0.542,1.316,1.049l-0.638,0.584c-0.242-0.277-0.478-0.498-0.708-0.66
				c-0.23-0.163-0.465-0.277-0.704-0.346c-0.239-0.068-0.519-0.102-0.837-0.102c-1.01,0-1.783,0.387-2.32,1.16
				c-0.213,0.307-0.365,0.657-0.456,1.049c-0.092,0.393-0.138,0.875-0.138,1.448s0.044,1.052,0.133,1.439s0.242,0.743,0.461,1.067
				c0.537,0.773,1.311,1.16,2.32,1.16c0.46,0,0.858-0.081,1.195-0.244c0.337-0.162,0.688-0.45,1.054-0.863L60.927,63.469z"/>
			<path id="XMLID_131_" class="st0" d="M67.767,52.929h-1.143v-1.142h1.143V52.929z M67.66,64.7h-0.921v-8.741h0.921V64.7z"/>
			<path id="XMLID_128_" class="st0" d="M80.796,60.325c0,0.466-0.03,0.909-0.089,1.329c-0.06,0.419-0.169,0.817-0.328,1.195
				c-0.16,0.378-0.385,0.711-0.674,1.001c-0.65,0.638-1.461,0.957-2.43,0.957c-0.976,0-1.789-0.319-2.438-0.957
				c-0.29-0.29-0.515-0.622-0.675-0.997c-0.159-0.375-0.269-0.769-0.328-1.182c-0.059-0.413-0.088-0.862-0.088-1.346
				c0-0.732,0.076-1.396,0.23-1.993c0.153-0.596,0.44-1.104,0.86-1.523c0.638-0.638,1.451-0.957,2.438-0.957
				c0.98,0,1.791,0.319,2.43,0.957c0.289,0.29,0.514,0.623,0.674,1.001c0.159,0.378,0.269,0.775,0.328,1.191
				C80.766,59.417,80.796,59.858,80.796,60.325z M79.856,60.325c0-0.673-0.049-1.246-0.146-1.718
				c-0.098-0.472-0.308-0.871-0.632-1.196c-0.483-0.496-1.085-0.744-1.804-0.744c-0.726,0-1.33,0.248-1.812,0.744
				c-0.324,0.325-0.535,0.731-0.633,1.218c-0.097,0.487-0.146,1.053-0.146,1.696c0,0.638,0.049,1.203,0.146,1.696
				c0.098,0.493,0.309,0.902,0.633,1.227c0.495,0.496,1.099,0.744,1.812,0.744c0.707,0,1.309-0.248,1.804-0.744
				c0.324-0.325,0.534-0.725,0.632-1.2C79.808,61.572,79.856,60.997,79.856,60.325z"/>
			<path id="XMLID_126_" class="st0" d="M93.072,62.211c0,0.526-0.144,0.985-0.43,1.377c-0.287,0.393-0.695,0.694-1.225,0.903
				c-0.528,0.209-1.145,0.314-1.849,0.314c-1.489,0-2.672-0.417-3.547-1.249l0.64-0.638c0.681,0.714,1.638,1.072,2.873,1.072
				c0.852,0,1.503-0.149,1.955-0.447c0.452-0.298,0.679-0.743,0.679-1.333c0-0.449-0.136-0.791-0.407-1.027
				c-0.271-0.236-0.694-0.381-1.267-0.434l-1.452-0.133c-1.76-0.142-2.64-0.903-2.64-2.285c0-0.496,0.129-0.932,0.386-1.307
				c0.257-0.375,0.622-0.664,1.096-0.868c0.473-0.204,1.028-0.306,1.667-0.306c0.615,0,1.186,0.081,1.712,0.244
				s0.979,0.388,1.356,0.677l-0.619,0.62c-0.674-0.496-1.488-0.744-2.444-0.744c-0.721,0-1.272,0.148-1.656,0.443
				c-0.384,0.295-0.576,0.708-0.576,1.24c0,0.46,0.144,0.807,0.43,1.041s0.736,0.376,1.351,0.43l1.408,0.124
				c0.814,0.071,1.445,0.271,1.891,0.602C92.85,60.859,93.072,61.42,93.072,62.211z"/>
			<path id="XMLID_124_" class="st0" d="M109.761,64.7h-0.8c-0.444,0-0.826-0.098-1.146-0.292c-0.32-0.195-0.562-0.463-0.725-0.806
				c-0.162-0.342-0.244-0.738-0.244-1.187v-5.766h-1.195v-0.69h1.195V53.16h0.939v2.799h1.975v0.69h-1.975v5.784
				c0,0.968,0.445,1.452,1.337,1.452h0.638V64.7z"/>
			<path id="XMLID_120_" class="st0" d="M122.116,60.528h-6.075c0,1.11,0.243,1.962,0.73,2.555s1.191,0.89,2.112,0.89
				c0.508,0,0.941-0.08,1.302-0.239c0.36-0.16,0.732-0.431,1.116-0.815l0.69,0.549c-0.467,0.466-0.938,0.806-1.414,1.019
				c-0.476,0.212-1.06,0.319-1.751,0.319c-0.805,0-1.483-0.17-2.036-0.509c-0.553-0.339-0.972-0.843-1.259-1.51
				c-0.287-0.667-0.43-1.488-0.43-2.462c0-0.708,0.079-1.339,0.239-1.891c0.159-0.552,0.389-1.017,0.688-1.395
				c0.298-0.378,0.669-0.67,1.112-0.877s0.935-0.31,1.473-0.31c0.55,0,1.037,0.095,1.463,0.283c0.426,0.189,0.792,0.468,1.1,0.837
				c0.308,0.369,0.541,0.816,0.7,1.341c0.16,0.526,0.239,1.125,0.239,1.798V60.528z M121.187,59.784
				c-0.018-0.431-0.044-0.742-0.08-0.934c-0.035-0.192-0.108-0.43-0.221-0.713c-0.184-0.449-0.484-0.806-0.903-1.072
				c-0.42-0.266-0.874-0.398-1.364-0.398c-0.502,0-0.956,0.131-1.364,0.394c-0.407,0.263-0.708,0.622-0.903,1.076
				c-0.112,0.283-0.188,0.531-0.226,0.744c-0.038,0.213-0.066,0.514-0.084,0.903H121.187z M120.779,51.335l-1.922,2.666h-1.054
				l1.753-2.666H120.779z"/>
			<path id="XMLID_118_" class="st0" d="M134.411,63.469c-0.467,0.514-0.913,0.865-1.339,1.054s-0.943,0.284-1.552,0.284
				c-0.586,0-1.113-0.102-1.583-0.306s-0.877-0.503-1.22-0.899s-0.603-0.874-0.78-1.435c-0.178-0.561-0.266-1.175-0.266-1.842
				c0-0.927,0.155-1.724,0.465-2.391c0.311-0.667,0.756-1.181,1.335-1.542c0.579-0.36,1.263-0.54,2.049-0.54
				c0.627,0,1.151,0.096,1.574,0.288s0.861,0.542,1.316,1.049l-0.638,0.584c-0.242-0.277-0.478-0.498-0.708-0.66
				c-0.23-0.163-0.465-0.277-0.704-0.346c-0.239-0.068-0.519-0.102-0.837-0.102c-1.01,0-1.783,0.387-2.32,1.16
				c-0.213,0.307-0.365,0.657-0.456,1.049c-0.092,0.393-0.138,0.875-0.138,1.448s0.044,1.052,0.133,1.439s0.242,0.743,0.461,1.067
				c0.537,0.773,1.311,1.16,2.32,1.16c0.46,0,0.858-0.081,1.195-0.244c0.337-0.162,0.688-0.45,1.054-0.863L134.411,63.469z"/>
			<path id="XMLID_116_" class="st0" d="M146.944,64.7h-0.921v-5.42c0-0.844-0.207-1.491-0.62-1.939s-1.01-0.673-1.789-0.673
				c-0.52,0-0.964,0.102-1.333,0.306c-0.369,0.204-0.65,0.501-0.846,0.894c-0.194,0.393-0.292,0.864-0.292,1.413v5.42h-0.921v-8.741
				h0.921v1.036c0.655-0.762,1.515-1.143,2.577-1.143c0.98,0,1.754,0.278,2.32,0.833c0.603,0.573,0.903,1.382,0.903,2.427V64.7z"/>
			<path id="XMLID_113_" class="st0" d="M154.475,52.929h-1.143v-1.142h1.143V52.929z M154.368,64.7h-0.921v-8.741h0.921V64.7z"/>
			<path id="XMLID_111_" class="st0" d="M167.193,63.469c-0.467,0.514-0.913,0.865-1.339,1.054s-0.943,0.284-1.552,0.284
				c-0.586,0-1.113-0.102-1.583-0.306s-0.877-0.503-1.22-0.899s-0.603-0.874-0.78-1.435c-0.178-0.561-0.266-1.175-0.266-1.842
				c0-0.927,0.155-1.724,0.465-2.391c0.311-0.667,0.756-1.181,1.335-1.542c0.579-0.36,1.263-0.54,2.049-0.54
				c0.627,0,1.151,0.096,1.574,0.288s0.861,0.542,1.316,1.049l-0.638,0.584c-0.242-0.277-0.478-0.498-0.708-0.66
				c-0.23-0.163-0.465-0.277-0.704-0.346c-0.239-0.068-0.519-0.102-0.837-0.102c-1.01,0-1.783,0.387-2.32,1.16
				c-0.213,0.307-0.365,0.657-0.456,1.049c-0.092,0.393-0.138,0.875-0.138,1.448s0.044,1.052,0.133,1.439s0.242,0.743,0.461,1.067
				c0.537,0.773,1.311,1.16,2.32,1.16c0.46,0,0.858-0.081,1.195-0.244c0.337-0.162,0.688-0.45,1.054-0.863L167.193,63.469z"/>
			<path id="XMLID_108_" class="st0" d="M179.533,60.325c0,0.466-0.03,0.909-0.089,1.329c-0.06,0.419-0.169,0.817-0.328,1.195
				c-0.16,0.378-0.385,0.711-0.674,1.001c-0.65,0.638-1.461,0.957-2.43,0.957c-0.976,0-1.789-0.319-2.438-0.957
				c-0.29-0.29-0.515-0.622-0.675-0.997c-0.159-0.375-0.269-0.769-0.328-1.182c-0.059-0.413-0.088-0.862-0.088-1.346
				c0-0.732,0.076-1.396,0.23-1.993c0.153-0.596,0.44-1.104,0.86-1.523c0.638-0.638,1.451-0.957,2.438-0.957
				c0.98,0,1.791,0.319,2.43,0.957c0.289,0.29,0.514,0.623,0.674,1.001c0.159,0.378,0.269,0.775,0.328,1.191
				C179.503,59.417,179.533,59.858,179.533,60.325z M178.594,60.325c0-0.673-0.049-1.246-0.146-1.718
				c-0.098-0.472-0.308-0.871-0.632-1.196c-0.483-0.496-1.085-0.744-1.804-0.744c-0.726,0-1.33,0.248-1.812,0.744
				c-0.324,0.325-0.535,0.731-0.633,1.218c-0.097,0.487-0.146,1.053-0.146,1.696c0,0.638,0.049,1.203,0.146,1.696
				c0.098,0.493,0.309,0.902,0.633,1.227c0.495,0.496,1.099,0.744,1.812,0.744c0.707,0,1.309-0.248,1.804-0.744
				c0.324-0.325,0.534-0.725,0.632-1.2C178.545,61.572,178.594,60.997,178.594,60.325z"/>
			<path id="XMLID_106_" class="st0" d="M191.809,62.211c0,0.526-0.144,0.985-0.43,1.377c-0.287,0.393-0.695,0.694-1.225,0.903
				c-0.528,0.209-1.145,0.314-1.849,0.314c-1.489,0-2.672-0.417-3.547-1.249l0.64-0.638c0.681,0.714,1.638,1.072,2.873,1.072
				c0.852,0,1.503-0.149,1.955-0.447c0.452-0.298,0.679-0.743,0.679-1.333c0-0.449-0.136-0.791-0.407-1.027
				c-0.271-0.236-0.694-0.381-1.267-0.434l-1.452-0.133c-1.76-0.142-2.64-0.903-2.64-2.285c0-0.496,0.129-0.932,0.386-1.307
				c0.257-0.375,0.622-0.664,1.096-0.868c0.473-0.204,1.028-0.306,1.667-0.306c0.615,0,1.186,0.081,1.712,0.244
				s0.979,0.388,1.356,0.677l-0.619,0.62c-0.674-0.496-1.488-0.744-2.444-0.744c-0.721,0-1.272,0.148-1.656,0.443
				c-0.384,0.295-0.576,0.708-0.576,1.24c0,0.46,0.144,0.807,0.43,1.041s0.736,0.376,1.351,0.43l1.408,0.124
				c0.814,0.071,1.445,0.271,1.891,0.602C191.586,60.859,191.809,61.42,191.809,62.211z"/>
		</g>
	</g>
	<g id="XMLID_87_">
		<path id="XMLID_97_" class="st1" d="M268.538,18.341v-2.315c0-2.714-2.023-4.897-4.498-4.897h-14.062v12.125h14.062
			C266.515,23.238,268.538,21.055,268.538,18.341L268.538,18.341z M268.538,18.341"/>
		<path id="XMLID_91_" class="st1" d="M268.538,50.846v-2.311c0-2.718-2.023-4.917-4.498-4.917h-14.062v12.125h14.062
			C266.515,55.743,268.538,53.56,268.538,50.846L268.538,50.846z M268.538,50.846"/>
		<path id="XMLID_89_" class="st1" d="M201.12,41.242c0.606,14.284,12.495,25.631,26.934,25.631h26.599V0l-26.599,0
			c-14.164,0-26.171,10.877-26.885,24.78C200.821,31.55,200.881,35.603,201.12,41.242z"/>
	</g>
	<g id="XMLID_79_">
		<path id="XMLID_85_" class="st2" d="M229.123,48.135H206.45l11.876-14.074c0.463-0.565,0.932-1.15,1.407-1.754
			c0.476-0.604,0.906-1.227,1.292-1.87c0.386-0.642,0.694-1.278,0.926-1.909c0.231-0.629,0.347-1.24,0.347-1.832
			c0-1.362-0.431-2.442-1.292-3.239c-0.861-0.796-1.922-1.195-3.181-1.195c-1.439,0-2.725,0.366-3.855,1.099
			c-1.132,0.732-2.082,1.677-2.854,2.834l-4.164-4.126c1.362-1.722,2.904-3.046,4.627-3.971c1.722-0.926,3.855-1.388,6.4-1.388
			c1.336,0,2.628,0.199,3.875,0.598c1.246,0.399,2.358,0.997,3.335,1.793c0.977,0.797,1.761,1.787,2.353,2.969
			c0.591,1.183,0.887,2.545,0.887,4.087c0,1.028-0.142,2.005-0.424,2.93c-0.283,0.925-0.662,1.819-1.138,2.68
			c-0.476,0.862-1.035,1.71-1.678,2.545c-0.643,0.836-1.311,1.691-2.005,2.564l-4.396,5.475h10.334V48.135z"/>
		<path id="XMLID_83_" class="st2" d="M241.581,48.135h-5.977V23.959l-5.013,1.928v-5.051l10.989-4.087V48.135z"/>
	</g>
</g>
</svg>